HIERARCHY
ROOT Hips
{
  OFFSET -55.461 87.2072 -49.3629
  CHANNELS 6 Xposition Yposition Zposition Zrotation Xrotation Yrotation
  JOINT RightUpLeg
  {
    OFFSET -8.9458 -8.66707 0.101652
    CHANNELS 3 Zrotation Xrotation Yrotation
    JOINT RightLeg
    {
      OFFSET 0 -44.4227 1.3727
      CHANNELS 3 Zrotation Xrotation Yrotation
      JOINT RightFoot
      {
        OFFSET 0.253549 -42.0924 -1.46059
        CHANNELS 3 Zrotation Xrotation Yrotation
        JOINT RightToes
        {
          OFFSET 0.04 -4.41509 8.4991
          CHANNELS 3 Zrotation Xrotation Yrotation
          End Site
          {
            OFFSET -0.08 -0.137448 9.77979
          }
        }
      }
    }
  }
  JOINT Spine
  {
    OFFSET 0 11.8905 0
    CHANNELS 3 Zrotation Xrotation Yrotation
    JOINT Spine1
    {
      OFFSET 0 25.6574 0.127663
      CHANNELS 3 Zrotation Xrotation Yrotation
      JOINT HEad
      {
        OFFSET 0 8.73416 0.011341
        CHANNELS 3 Zrotation Xrotation Yrotation
        End Site
        {
          OFFSET -0.29 12.7742 2.51395
        }
      }
      JOINT LeftShoulder1
      {
        OFFSET 8.99 -0.362252 -0.22
        CHANNELS 3 Zrotation Xrotation Yrotation
        JOINT LeftArm
        {
          OFFSET 10.2827 -0.00338 0.322123
          CHANNELS 3 Zrotation Xrotation Yrotation
          JOINT LeftForeArm
          {
            OFFSET 32.7669 0.099144 -1.42434
            CHANNELS 3 Zrotation Xrotation Yrotation
            JOINT LeftHand
            {
              OFFSET 27.5643 0.085362 1.02216
              CHANNELS 3 Zrotation Xrotation Yrotation
              End Site
              {
                OFFSET 16.7443 -0.6 1.50291
              }
            }
          }
        }
      }
      JOINT RightShoulder
      {
        OFFSET -8.99 -0.362252 -0.22
        CHANNELS 3 Zrotation Xrotation Yrotation
        JOINT RightArm
        {
          OFFSET -10.2827 -0.00338 0.322123
          CHANNELS 3 Zrotation Xrotation Yrotation
          JOINT RightForeArm
          {
            OFFSET -32.8971 0.099144 -1.42434
            CHANNELS 3 Zrotation Xrotation Yrotation
            JOINT RightHand
            {
              OFFSET -27.4921 0.085362 1.02216
              CHANNELS 3 Zrotation Xrotation Yrotation
              End Site
              {
                OFFSET -16.6312 -0.6 1.50291
              }
            }
          }
        }
      }
    }
  }
  JOINT LeftUpLeg
  {
    OFFSET 8.9458 -8.66707 0.101652
    CHANNELS 3 Zrotation Xrotation Yrotation
    JOINT LeftLeg
    {
      OFFSET 0 -44.4227 1.3727
      CHANNELS 3 Zrotation Xrotation Yrotation
      JOINT LeftFoot
      {
        OFFSET -0.253549 -42.0924 -1.46059
        CHANNELS 3 Zrotation Xrotation Yrotation
        JOINT LeftToes
        {
          OFFSET -0.04 -4.41509 8.4991
          CHANNELS 3 Zrotation Xrotation Yrotation
          End Site
          {
            OFFSET 0.08 -0.047448 9.77979
          }
        }
      }
    }
  }
}
MOTION
Frames:	14
Frame Time:	0.0166667
-52.5767 88.2614 -49.9578 1.64583 -12.9226 -13.5582 -20.7216 -16.7071 11.7287 34.952 62.7097 -36.2597 -6.85753 21.2456 5.61343 0.0462048 0.000533964 0.662642 -2.61494 8.8949 8.06347 1.59592 17.3977 13.5496 -15.5986 -3.90711 14.0624 5.96354e-016 1.59028e-015 1.59028e-015 112.625 -75.7793 -172.357 177.034 83.0734 44.8604 31.9291 27.2985 -5.63203 30.2546 -5.6241 -19.8063 75.5769 13.3637 76.6549 63.8498 56.35 37.2753 -8.18768 29.2877 3.75739 20.7 -40.7602 -7.70946 -2.24382 46.0198 -1.87682 -22.7566 8.49661 0.889459 -1.39149e-015 2.34566e-014 9.54166e-015 
-51.4082 89.029 -49.7629 1.93195 -12.4096 -14.4692 -21.282 -16.7833 11.6612 30.0884 61.148 -31.7707 -5.98761 23.6411 5.17861 0.0462048 0.000533964 0.662642 -2.85746 8.88337 8.20666 1.27405 17.417 13.9593 -15.4517 -2.96641 14.4041 1.19271e-015 3.18055e-015 -0 116.605 -77.1851 -167.955 173.497 83.7913 48.7443 31.5678 27.5495 -4.73572 30.0709 -5.44449 -19.3489 70.247 15.3909 79.0605 52.7811 52.4067 44.2103 -8.18768 29.2877 3.75739 20.0071 -40.6114 -9.5228 -3.25253 46.2639 -1.91157 -23.5218 6.71079 0.707714 -1.36831e-030 2.46493e-014 3.18055e-015 
-50.1573 90.0052 -49.3762 2.17556 -11.6605 -15.6877 -21.6628 -17.069 11.5723 24.71 59.3974 -26.0687 -4.18718 26.1656 4.44768 0.0462048 0.000533964 0.662642 -3.26231 8.79727 8.29759 0.86496 17.2693 14.3057 -15.3624 -2.22973 14.9954 -9.93923e-016 1.59028e-015 -7.95139e-016 122.275 -77.9456 -162.414 171.262 84.3527 51.4334 31.2474 27.7705 -3.92538 29.7317 -5.27097 -18.9851 66.7952 16.2601 80.2658 46.5155 49.1477 47.511 -8.18768 29.2877 3.75739 19.7102 -40.357 -10.7549 -4.33609 46.8357 -2.19715 -23.8795 4.30709 0.337648 5.96354e-016 2.5842e-014 -0 
-48.8334 91.1707 -48.8094 2.29272 -10.6762 -17.181 -21.7868 -17.4669 11.4793 19.2792 57.3 -19.6238 -1.56134 28.4623 3.37932 0.0462048 0.000533964 0.662642 -3.72898 8.64521 8.29876 0.464475 16.985 14.5076 -15.3745 -1.88047 15.8855 -1.19271e-015 0 -0 129.162 -77.8958 -156.314 170.738 84.7848 52.4958 30.9768 27.9571 -3.22559 29.2486 -5.10815 -18.7212 65.4874 16.1441 80.1463 44.0442 47.5692 48.6905 -8.18768 29.2877 3.75739 19.8437 -39.958 -11.352 -5.47925 47.6592 -2.44067 -23.6582 1.70366 -0.109724 1.59028e-015 2.50469e-014 -0 
-47.4451 92.4916 -48.0837 2.22038 -9.48605 -18.8982 -21.6351 -17.8719 11.3977 14.3281 54.7832 -13.1036 1.58921 30.1779 2.04059 0.0462048 0.000533964 0.662642 -4.141 8.4369 8.17619 0.154993 16.6003 14.4879 -15.481 -2.01863 17.1144 -8.94531e-016 0 -7.95139e-016 136.269 -76.9801 -150.721 171.72 85.1748 52.1846 30.6951 28.125 -2.59176 28.6479 -4.96075 -18.5595 66.2356 15.1484 78.8302 44.796 47.9656 48.521 -8.18768 29.2877 3.75739 20.4142 -39.3339 -11.3701 -6.71757 48.5957 -2.24697 -22.8652 -0.809979 -0.527465 -5.96354e-016 2.42517e-014 3.18055e-015 
-46.0012 93.9162 -47.2325 1.93241 -8.14028 -20.757 -21.2446 -18.1982 11.3302 10.2338 51.9014 -7.09108 4.8545 31.0805 0.602843 0.0462048 0.000533964 0.662642 -4.39182 8.18233 7.90726 -0.00556897 16.1441 14.1877 -15.6281 -2.62777 18.7016 -1.21756e-015 -3.18055e-015 4.96962e-017 142.782 -75.2452 -146.487 173.654 85.6515 51.2244 30.2749 28.3069 -1.91391 27.9624 -4.83007 -18.4905 68.7331 13.29 76.5943 48.6506 50.1132 46.9506 -8.18768 29.2877 3.75739 21.3668 -38.3992 -10.9625 -8.0898 49.4534 -1.29751 -21.6441 -3.11096 -0.853287 -7.95139e-016 2.70347e-014 3.18055e-015 
-44.5153 95.3787 -46.3084 1.44605 -6.70456 -22.6486 -20.6933 -18.3908 11.2613 7.1163 48.7981 -1.93569 7.84936 31.1247 -0.730542 0.0462048 0.000533964 0.662642 -4.41969 7.89418 7.48573 0.00257398 15.6386 13.5787 -15.7405 -3.5817 20.6353 3.97569e-016 -3.18055e-015 -0 148.527 -72.7829 -143.789 176.485 86.3395 50.0098 29.5838 28.5324 -1.07581 27.2122 -4.70263 -18.4628 72.5674 10.5112 73.7858 55.832 53.3726 43.3024 -8.18768 29.2877 3.75739 22.5655 -37.1157 -10.3392 -9.57612 50.0221 0.492553 -20.1886 -5.19282 -1.072 1.19271e-015 2.50469e-014 -0 
-43.008 96.8073 -45.3841 0.815185 -5.25773 -24.4501 -20.077 -18.4229 11.1606 4.88573 45.6439 2.23623 10.3301 30.4346 -1.81386 0.0462048 0.000533964 0.662642 -4.23094 7.58968 6.92235 0.154904 15.105 12.6668 -15.7503 -4.68966 22.8647 5.96354e-016 -3.18055e-015 -7.95139e-016 153.889 -69.6846 -142.223 -177.641 87.3017 46.9278 28.5997 28.7952 -0.0695994 26.3782 -4.53897 -18.3516 77.3033 6.7169 70.7922 66.6529 56.7477 36.7088 -8.18768 29.2877 3.75739 23.8099 -35.5365 -9.70049 -11.0486 50.1357 2.9043 -18.6613 -7.06315 -1.19063 -3.57812e-015 2.54444e-014 9.54166e-015 
-41.5066 98.136 -44.5464 0.114706 -3.88735 -26.0311 -19.4885 -18.2938 11.0002 3.35148 42.5941 5.42611 12.2254 29.2445 -2.59935 0.0462048 0.000533964 0.662642 -3.9045 7.29017 6.23985 0.387046 14.5702 11.485 -15.6186 -5.76439 25.3057 -1.19271e-015 0 4.77083e-015 159.605 -66.0616 -141.048 -155.352 88.4616 29.2841 27.5163 29.0328 0.885004 25.3809 -4.27353 -17.9558 82.5589 1.85071 68.0288 80.7452 59.0814 27.0397 -8.18768 29.2877 3.75739 24.8832 -33.8191 -9.16616 -12.2672 49.7293 5.46034 -17.1477 -8.63975 -1.21254 -9.93923e-016 2.46493e-014 6.36111e-015 
-40.0401 99.3117 -43.8809 -0.58109 -2.67876 -27.2837 -18.997 -18.0337 10.7766 2.32012 39.7869 7.66713 13.5789 27.8275 -3.11542 0.0462048 0.000533964 0.662642 -3.56561 7.01789 5.46479 0.612816 14.0692 10.0781 -15.3341 -6.68431 27.8606 -7.95139e-016 -6.36111e-015 3.18055e-015 166.555 -62.104 -139.449 -74.9331 88.3898 -43.9122 26.7473 29.1355 1.28736 24.0789 -3.83251 -17.0331 87.1713 -3.38818 65.9902 94.1033 59.653 18.0484 -8.18768 29.2877 3.75739 25.6083 -32.1961 -8.73467 -12.9418 48.8685 7.57281 -15.6487 -9.70801 -1.12893 9.93923e-016 2.46493e-014 6.36111e-015 
-38.6314 100.296 -43.4563 -1.21681 -1.69727 -28.139 -18.6373 -17.7189 10.528 1.66016 37.3723 8.95598 14.4602 26.4273 -3.41765 0.0462048 0.000533964 0.662642 -3.34046 6.79258 4.62114 0.750282 13.6415 8.49078 -14.9002 -7.42445 30.4446 8.82781e-032 -3.18055e-015 1.59028e-015 175.494 -58.0957 -136.854 -43.1081 85.5212 -65.2924 26.8037 28.9462 0.359388 22.2915 -3.16813 -15.3664 89.6179 -7.64089 64.7535 101.029 59.652 15.4341 -8.18768 29.2877 3.75739 25.8889 -30.9138 -8.29392 -12.8336 47.7254 8.73006 -14.1253 -9.96332 -0.930318 -1.19271e-015 2.62396e-014 3.18055e-015 
-37.2904 101.056 -43.3072 -1.76822 -0.969525 -28.5905 -18.4107 -17.4897 10.337 1.33702 35.5574 9.22285 14.8943 25.1917 -3.5467 0.0462048 0.000533964 0.662642 -3.29785 6.62833 3.73019 0.751048 13.3228 6.76775 -14.3257 -8.04603 33.0004 -7.95139e-016 3.18055e-015 -0 -156.13 -58.6816 -118.693 -14.6563 70.0223 -78.5453 26.9505 28.4527 -2.03036 19.846 -2.29908 -12.8387 92.7753 -12.5297 64.0148 106.855 59.649 13.4728 -8.18768 29.2877 3.75739 25.7278 -30.1622 -7.68227 -11.8402 46.5127 8.64773 -12.5791 -9.11902 -0.629335 5.96354e-016 2.50469e-014 6.36111e-015 
-36.0163 101.563 -43.4261 -2.24088 -0.477683 -28.703 -18.2983 -17.5432 10.3165 1.43078 34.6178 8.33336 14.8335 24.1277 -3.50735 0.0462048 0.000533964 0.662642 -3.4229 6.5312 2.81673 0.618228 13.135 4.96727 -13.6321 -8.65375 35.489 1.59028e-015 0 6.36111e-015 -105.12 -54.1594 -83.4963 -4.69384 36.4492 -67.6071 26.4717 27.3027 -7.81293 16.6571 -1.33637 -9.50431 96.78 -17.8012 63.9317 111.6 59.7194 12.1244 -8.18768 29.2877 3.75739 25.2246 -30.0141 -6.77619 -10.038 45.3886 7.34905 -11.1155 -7.02865 -0.271999 2.5842e-015 2.42517e-014 9.54166e-015 
-34.8068 101.8 -43.7661 -2.66146 -0.17334 -28.6056 -18.2821 -18.0833 10.5767 2.14895 34.8277 6.11631 14.177 23.1044 -3.27243 0.0462048 0.000533964 0.662642 -3.63042 6.49651 1.91745 0.40352 13.0765 3.17548 -12.8713 -9.33965 37.864 1.59028e-015 0 -0 -71.6702 -42.9519 -66.9741 2.69321 5.55467 -48.1001 27.2515 24.6478 -19.6587 12.8299 -0.463797 -5.64139 101.616 -23.0455 64.5965 115.516 59.863 11.1774 -8.18768 29.2877 3.75739 24.5549 -30.3946 -5.56307 -7.68493 44.411 5.17309 -9.92416 -3.80501 0.0796827 -1.98785e-015 2.34566e-014 -0 
